<svg xmlns="http://www.w3.org/2000/svg" viewBox="0 0 48 48"><defs><style>.cls-2{fill:#edebf2}.cls-3{fill:#7c7d7d}.cls-4{fill:#c6c3d8}.cls-9{fill:#374f68}.cls-10{fill:#425b72}</style></defs><g id="shooping_cart" data-name="shooping cart"><path d="M47 15c-3 17.29-2.52 14.24-3 17H16l-2.35-18.78z" style="fill:#dad7e5"/><path class="cls-2" d="m47 15-2.65 15H21.53a4 4 0 0 1-4-3.5l-1.61-13.16z"/><path class="cls-3" d="M44 39c-30.2 0-28.4.21-28.83-.45a6.39 6.39 0 0 1-.17-6.78L12.23 9.88a1 1 0 0 0-1-.88H9a1 1 0 0 1 0-2h2.23a3 3 0 0 1 3 2.63c3 24.29 2.92 22.48 2.62 22.92a4.41 4.41 0 0 0-.28 4.45H44a1 1 0 0 1 0 2z"/><path class="cls-4" d="M29 27v-8a1 1 0 0 1 2 0v8a1 1 0 0 1-2 0zM35 26.88l1-8a1 1 0 0 1 2 .24l-1 8a1 1 0 0 1-2-.24zM23 27.12l-1-8a1 1 0 0 1 2-.24l1 8a1 1 0 0 1-2 .24z"/><path d="M38.75 14.56 31 14.15V9a5 5 0 0 1 7.75 5.56z" style="fill:#6fabe6"/><path d="m39 12.57-4.08-.22a2 2 0 0 1-1.89-2V8.1A5 5 0 0 1 39 12.57z" style="fill:#82bcf4"/><path d="M31 4v10.15l-10-.54V4z" style="fill:#db5669"/><path d="M31 4v8l-5.16-.28a3 3 0 0 1-2.84-3V4z" style="fill:#f26674"/><path class="cls-9" d="M9 7v2a1 1 0 0 1-1 1H3a2 2 0 0 1-1-3.74c.61-.35.51-.26 6-.26a1 1 0 0 1 1 1z"/><path class="cls-10" d="M9 7v1H4a2 2 0 0 1-2-1.74c.61-.35.51-.26 6-.26a1 1 0 0 1 1 1z"/><path class="cls-9" d="M20 41a3 3 0 1 1-3.87-2.87A3 3 0 0 1 20 41z"/><circle class="cls-9" cx="40" cy="41" r="3"/><path class="cls-10" d="M19.87 41.87a3 3 0 0 1-3.74-3.74 3 3 0 0 1 3.74 3.74zM42.87 41.87a3 3 0 0 1-3.74-3.74 3 3 0 0 1 3.74 3.74z"/><path class="cls-2" d="M16.29 40.29a1 1 0 0 1 1.42 1.42 1 1 0 0 1-1.42-1.42zM39.29 40.29a1 1 0 0 1 1.42 1.42 1 1 0 0 1-1.42-1.42z"/><path class="cls-3" d="M17 31h26a1 1 0 0 1 0 2H17a1 1 0 0 1 0-2z"/></g></svg>